<svg width="1153" height="144" viewBox="0 0 1153 144" fill="none" xmlns="http://www.w3.org/2000/svg">
<rect x="1" y="37" width="1138.02" height="100" rx="4" fill="white" stroke="#CFE6FF" stroke-width="2"/>
<line x1="-0.00354004" y1="70.4845" x2="1140.03" y2="70.4845" stroke="#CFE6FF"/>
<line x1="-0.00170895" y1="103.5" x2="1140.02" y2="103.5" stroke="#CFE6FF"/>
<line x1="102.41" y1="137" x2="102.41" y2="36.9999" stroke="#CFE6FF"/>
<line x1="181.343" y1="137" x2="181.343" y2="36.9997" stroke="#CFE6FF"/>
<path d="M33.5277 54.4736C33.5277 55.0238 33.3923 55.4977 33.1215 55.8955C32.8549 56.2933 32.4698 56.598 31.9662 56.8096C31.4668 57.0212 30.8702 57.127 30.1761 57.127C29.8376 57.127 29.5139 57.1079 29.205 57.0698C28.896 57.0317 28.604 56.9767 28.329 56.9048C28.0581 56.8286 27.8106 56.7376 27.5863 56.6318V55.1973C27.9629 55.3623 28.384 55.5125 28.8495 55.6479C29.315 55.7791 29.7889 55.8447 30.2714 55.8447C30.6649 55.8447 30.9908 55.7939 31.2489 55.6924C31.5113 55.5866 31.7059 55.4385 31.8329 55.248C31.9598 55.0534 32.0233 54.827 32.0233 54.5688C32.0233 54.2938 31.9493 54.061 31.8011 53.8706C31.653 53.6802 31.4288 53.5067 31.1283 53.3501C30.8321 53.1893 30.4597 53.0179 30.0111 52.8359C29.7064 52.7132 29.4144 52.5736 29.1351 52.417C28.8601 52.2604 28.6146 52.0763 28.3988 51.8647C28.183 51.6532 28.0116 51.4035 27.8846 51.1157C27.7619 50.8237 27.7006 50.481 27.7006 50.0874C27.7006 49.5627 27.8254 49.1141 28.0751 48.7417C28.329 48.3693 28.6844 48.0837 29.1415 47.8848C29.6027 47.6859 30.1402 47.5864 30.7538 47.5864C31.2404 47.5864 31.6975 47.6372 32.1249 47.7388C32.5565 47.8403 32.9797 47.9842 33.3944 48.1704L32.912 49.3955C32.5311 49.2389 32.1608 49.1141 31.8011 49.021C31.4457 48.9279 31.0817 48.8813 30.7094 48.8813C30.3877 48.8813 30.1148 48.93 29.8905 49.0273C29.6662 49.1247 29.4948 49.2622 29.3763 49.4399C29.2621 49.6134 29.205 49.8208 29.205 50.062C29.205 50.3328 29.2705 50.5614 29.4017 50.7476C29.5372 50.9295 29.7445 51.0967 30.0238 51.249C30.3073 51.4014 30.6713 51.5706 31.1156 51.7568C31.6276 51.9684 32.0614 52.1906 32.4169 52.4233C32.7766 52.6561 33.0516 52.9354 33.2421 53.2612C33.4325 53.5828 33.5277 53.987 33.5277 54.4736ZM40.5736 57H35.3177V47.7197H40.5736V49.002H36.8412V51.522H40.3387V52.7979H36.8412V55.7114H40.5736V57ZM48.3304 57L47.4227 54.4229H43.8744L42.9667 57H41.3607L44.8138 47.6816H46.5023L49.9491 57H48.3304ZM47.0292 53.1152L46.1469 50.5762C46.113 50.4661 46.0643 50.3117 46.0009 50.1128C45.9374 49.9097 45.8739 49.7044 45.8104 49.4971C45.7469 49.2855 45.6941 49.1077 45.6517 48.9639C45.6094 49.1374 45.5565 49.332 45.493 49.5479C45.4338 49.7594 45.3746 49.9583 45.3153 50.1445C45.2603 50.3307 45.218 50.4746 45.1884 50.5762L44.2997 53.1152H47.0292ZM56.5316 54.4736C56.5316 55.0238 56.3962 55.4977 56.1254 55.8955C55.8588 56.2933 55.4737 56.598 54.9701 56.8096C54.4707 57.0212 53.8741 57.127 53.1801 57.127C52.8415 57.127 52.5178 57.1079 52.2089 57.0698C51.8999 57.0317 51.608 56.9767 51.3329 56.9048C51.0621 56.8286 50.8145 56.7376 50.5902 56.6318V55.1973C50.9668 55.3623 51.3879 55.5125 51.8534 55.6479C52.3189 55.7791 52.7928 55.8447 53.2753 55.8447C53.6688 55.8447 53.9947 55.7939 54.2528 55.6924C54.5152 55.5866 54.7098 55.4385 54.8368 55.248C54.9637 55.0534 55.0272 54.827 55.0272 54.5688C55.0272 54.2938 54.9532 54.061 54.8051 53.8706C54.6569 53.6802 54.4327 53.5067 54.1322 53.3501C53.836 53.1893 53.4636 53.0179 53.015 52.8359C52.7103 52.7132 52.4183 52.5736 52.139 52.417C51.864 52.2604 51.6185 52.0763 51.4027 51.8647C51.1869 51.6532 51.0155 51.4035 50.8885 51.1157C50.7658 50.8237 50.7045 50.481 50.7045 50.0874C50.7045 49.5627 50.8293 49.1141 51.079 48.7417C51.3329 48.3693 51.6884 48.0837 52.1454 47.8848C52.6066 47.6859 53.1441 47.5864 53.7577 47.5864C54.2443 47.5864 54.7014 47.6372 55.1288 47.7388C55.5604 47.8403 55.9836 47.9842 56.3983 48.1704L55.9159 49.3955C55.535 49.2389 55.1648 49.1141 54.8051 49.021C54.4496 48.9279 54.0857 48.8813 53.7133 48.8813C53.3916 48.8813 53.1187 48.93 52.8944 49.0273C52.6701 49.1247 52.4987 49.2622 52.3802 49.4399C52.266 49.6134 52.2089 49.8208 52.2089 50.062C52.2089 50.3328 52.2745 50.5614 52.4056 50.7476C52.5411 50.9295 52.7484 51.0967 53.0277 51.249C53.3112 51.4014 53.6752 51.5706 54.1195 51.7568C54.6316 51.9684 55.0653 52.1906 55.4208 52.4233C55.7805 52.6561 56.0555 52.9354 56.246 53.2612C56.4364 53.5828 56.5316 53.987 56.5316 54.4736ZM66.5609 52.3472C66.5609 53.0623 66.4699 53.714 66.288 54.3022C66.1102 54.8862 65.8415 55.3898 65.4818 55.813C65.1221 56.2319 64.6714 56.5557 64.1298 56.7842C63.5881 57.0127 62.9533 57.127 62.2255 57.127C61.4849 57.127 60.8417 57.0127 60.2958 56.7842C59.7541 56.5557 59.3034 56.2298 58.9437 55.8066C58.5883 55.3835 58.3217 54.8778 58.1439 54.2896C57.9662 53.7013 57.8773 53.0496 57.8773 52.3345C57.8773 51.3781 58.0339 50.5444 58.347 49.8335C58.6644 49.1183 59.1447 48.564 59.788 48.1704C60.4354 47.7726 61.2522 47.5737 62.2382 47.5737C63.203 47.5737 64.0049 47.7705 64.6439 48.1641C65.2829 48.5576 65.7611 49.112 66.0785 49.8271C66.4001 50.5381 66.5609 51.3781 66.5609 52.3472ZM59.4769 52.3472C59.4769 53.0623 59.5743 53.6823 59.7689 54.207C59.9636 54.7275 60.2619 55.1296 60.6639 55.4131C61.0702 55.6924 61.5907 55.832 62.2255 55.832C62.8645 55.832 63.385 55.6924 63.787 55.4131C64.189 55.1296 64.4852 54.7275 64.6757 54.207C64.8661 53.6823 64.9613 53.0623 64.9613 52.3472C64.9613 51.2596 64.7434 50.409 64.3075 49.7954C63.8759 49.1776 63.1861 48.8687 62.2382 48.8687C61.6034 48.8687 61.0808 49.0083 60.6703 49.2876C60.264 49.5669 59.9636 49.9668 59.7689 50.4873C59.5743 51.0036 59.4769 51.6235 59.4769 52.3472ZM76.2982 57H74.4257L69.8807 49.5923H69.8236C69.8405 49.842 69.8553 50.1064 69.868 50.3857C69.885 50.665 69.8977 50.9528 69.9061 51.249C69.9188 51.5452 69.9294 51.8457 69.9379 52.1504V57H68.5541V47.7197H70.4139L74.9525 55.0767H74.9969C74.9885 54.8608 74.9779 54.6133 74.9652 54.334C74.9525 54.0547 74.9398 53.7669 74.9271 53.4707C74.9187 53.1702 74.9123 52.8804 74.9081 52.6011V47.7197H76.2982V57ZM84.0931 54.4736C84.0931 55.0238 83.9577 55.4977 83.6869 55.8955C83.4203 56.2933 83.0352 56.598 82.5316 56.8096C82.0323 57.0212 81.4356 57.127 80.7416 57.127C80.403 57.127 80.0793 57.1079 79.7704 57.0698C79.4615 57.0317 79.1695 56.9767 78.8944 56.9048C78.6236 56.8286 78.376 56.7376 78.1517 56.6318V55.1973C78.5284 55.3623 78.9494 55.5125 79.4149 55.6479C79.8804 55.7791 80.3544 55.8447 80.8368 55.8447C81.2303 55.8447 81.5562 55.7939 81.8143 55.6924C82.0767 55.5866 82.2714 55.4385 82.3983 55.248C82.5253 55.0534 82.5887 54.827 82.5887 54.5688C82.5887 54.2938 82.5147 54.061 82.3666 53.8706C82.2185 53.6802 81.9942 53.5067 81.6937 53.3501C81.3975 53.1893 81.0251 53.0179 80.5765 52.8359C80.2719 52.7132 79.9799 52.5736 79.7006 52.417C79.4255 52.2604 79.1801 52.0763 78.9642 51.8647C78.7484 51.6532 78.577 51.4035 78.4501 51.1157C78.3274 50.8237 78.266 50.481 78.266 50.0874C78.266 49.5627 78.3908 49.1141 78.6405 48.7417C78.8944 48.3693 79.2499 48.0837 79.7069 47.8848C80.1682 47.6859 80.7056 47.5864 81.3192 47.5864C81.8059 47.5864 82.2629 47.6372 82.6903 47.7388C83.1219 47.8403 83.5451 47.9842 83.9598 48.1704L83.4774 49.3955C83.0966 49.2389 82.7263 49.1141 82.3666 49.021C82.0111 48.9279 81.6472 48.8813 81.2748 48.8813C80.9532 48.8813 80.6802 48.93 80.4559 49.0273C80.2316 49.1247 80.0603 49.2622 79.9418 49.4399C79.8275 49.6134 79.7704 49.8208 79.7704 50.062C79.7704 50.3328 79.836 50.5614 79.9672 50.7476C80.1026 50.9295 80.3099 51.0967 80.5892 51.249C80.8728 51.4014 81.2367 51.5706 81.681 51.7568C82.1931 51.9684 82.6268 52.1906 82.9823 52.4233C83.342 52.6561 83.6171 52.9354 83.8075 53.2612C83.9979 53.5828 84.0931 53.987 84.0931 54.4736Z" fill="#1F2036"/>
<path d="M43.4857 14H41.9686V9.81055H37.6903V14H36.1669V4.71973H37.6903V8.51562H41.9686V4.71973H43.4857V14ZM48.5448 6.83984C49.4335 6.83984 50.1042 7.03662 50.557 7.43018C51.014 7.82373 51.2426 8.43734 51.2426 9.271V14H50.1825L49.8969 13.0034H49.8461C49.6472 13.2573 49.4419 13.4668 49.2303 13.6318C49.0188 13.7969 48.7733 13.9196 48.494 14C48.219 14.0846 47.8825 14.127 47.4847 14.127C47.0658 14.127 46.6913 14.0508 46.3612 13.8984C46.0311 13.7419 45.7709 13.5049 45.5804 13.1875C45.39 12.8701 45.2948 12.4681 45.2948 11.9814C45.2948 11.2578 45.5635 10.714 46.101 10.3501C46.6426 9.98617 47.4594 9.78516 48.5511 9.74707L49.7699 9.70264V9.33447C49.7699 8.84782 49.6556 8.50081 49.4271 8.29346C49.2028 8.0861 48.8855 7.98242 48.475 7.98242C48.1237 7.98242 47.7831 8.0332 47.453 8.13477C47.1229 8.23633 46.8013 8.36117 46.4882 8.50928L46.0057 7.45557C46.3485 7.2736 46.7378 7.12549 47.1737 7.01123C47.6138 6.89697 48.0708 6.83984 48.5448 6.83984ZM49.7635 10.6421L48.8558 10.6738C48.111 10.6992 47.5884 10.8262 47.288 11.0547C46.9875 11.2832 46.8373 11.5964 46.8373 11.9941C46.8373 12.3411 46.941 12.5951 47.1483 12.7559C47.3557 12.9124 47.6286 12.9907 47.9672 12.9907C48.4834 12.9907 48.9108 12.8447 49.2494 12.5527C49.5922 12.2565 49.7635 11.8228 49.7635 11.2515V10.6421ZM56.892 6.83984C57.0105 6.83984 57.1395 6.84619 57.2792 6.85889C57.4188 6.87158 57.5394 6.88851 57.641 6.90967L57.5013 8.30615C57.4125 8.28076 57.3024 8.26172 57.1713 8.24902C57.0443 8.23633 56.9301 8.22998 56.8285 8.22998C56.5619 8.22998 56.308 8.27441 56.0668 8.36328C55.8256 8.44792 55.6119 8.5791 55.4257 8.75684C55.2395 8.93034 55.0935 9.14827 54.9877 9.41064C54.8819 9.67301 54.829 9.9777 54.829 10.3247V14H53.3309V6.97314H54.4989L54.702 8.21094H54.7719C54.9115 7.96126 55.085 7.73275 55.2924 7.52539C55.4997 7.31803 55.7367 7.15299 56.0033 7.03027C56.2741 6.90332 56.5704 6.83984 56.892 6.83984ZM60.5482 14L57.8759 6.97314H59.4564L60.9037 11.0991C60.9968 11.3615 61.0814 11.645 61.1576 11.9497C61.2338 12.2544 61.2867 12.5104 61.3163 12.7178H61.3671C61.3967 12.502 61.4538 12.2438 61.5385 11.9434C61.6231 11.6387 61.7098 11.3573 61.7987 11.0991L63.246 6.97314H64.8202L62.1478 14H60.5482ZM68.6859 6.83984C69.3122 6.83984 69.8497 6.96891 70.2982 7.22705C70.7468 7.48519 71.0917 7.85124 71.3329 8.3252C71.5741 8.79915 71.6947 9.36621 71.6947 10.0264V10.8262H67.0038C67.0207 11.5075 67.2027 12.0322 67.5497 12.4004C67.9009 12.7686 68.3918 12.9526 69.0223 12.9526C69.4709 12.9526 69.8729 12.9103 70.2284 12.8257C70.5881 12.7368 70.9584 12.6077 71.3392 12.4385V13.6509C70.988 13.8159 70.6304 13.9365 70.2665 14.0127C69.9025 14.0889 69.4667 14.127 68.9589 14.127C68.2691 14.127 67.6618 13.9937 67.1371 13.7271C66.6166 13.4562 66.2082 13.0542 65.912 12.521C65.62 11.9878 65.474 11.3255 65.474 10.5342C65.474 9.74707 65.6073 9.07845 65.8739 8.52832C66.1405 7.97819 66.515 7.55924 66.9974 7.27148C67.4799 6.98372 68.0427 6.83984 68.6859 6.83984ZM68.6859 7.96338C68.2162 7.96338 67.8353 8.11572 67.5433 8.42041C67.2556 8.7251 67.0863 9.17155 67.0355 9.75977H70.2347C70.2305 9.40853 70.1713 9.09749 70.057 8.82666C69.947 8.55583 69.7777 8.34424 69.5492 8.19189C69.3249 8.03955 69.0372 7.96338 68.6859 7.96338ZM78.0995 11.9941C78.0995 12.4554 77.9873 12.8447 77.7631 13.1621C77.5388 13.4795 77.2108 13.7207 76.7792 13.8857C76.3518 14.0465 75.827 14.127 75.205 14.127C74.7141 14.127 74.2909 14.091 73.9354 14.019C73.5842 13.9513 73.252 13.8455 72.9388 13.7017V12.4131C73.2732 12.5697 73.6477 12.7051 74.0624 12.8193C74.4813 12.9336 74.877 12.9907 75.2494 12.9907C75.7403 12.9907 76.0936 12.9146 76.3094 12.7622C76.5253 12.6056 76.6332 12.3983 76.6332 12.1401C76.6332 11.9878 76.5887 11.8524 76.4999 11.7339C76.4152 11.6112 76.2544 11.4863 76.0175 11.3594C75.7847 11.2282 75.4419 11.0716 74.9891 10.8896C74.5448 10.7119 74.1703 10.5342 73.8656 10.3564C73.5609 10.1787 73.3303 9.96501 73.1737 9.71533C73.0171 9.46143 72.9388 9.1377 72.9388 8.74414C72.9388 8.12207 73.1843 7.65023 73.6752 7.32861C74.1703 7.00277 74.8241 6.83984 75.6366 6.83984C76.0682 6.83984 76.4745 6.88428 76.8553 6.97314C77.2404 7.05778 77.6171 7.18262 77.9852 7.34766L77.5155 8.47119C77.1981 8.33154 76.8786 8.21729 76.557 8.12842C76.2396 8.03532 75.9159 7.98877 75.5858 7.98877C75.2007 7.98877 74.9066 8.04801 74.7035 8.1665C74.5046 8.28499 74.4052 8.45426 74.4052 8.67432C74.4052 8.83936 74.4538 8.979 74.5511 9.09326C74.6485 9.20752 74.8156 9.32178 75.0526 9.43604C75.2938 9.55029 75.6281 9.69206 76.0555 9.86133C76.4745 10.0221 76.8363 10.1914 77.141 10.3691C77.4499 10.5426 77.6869 10.7563 77.8519 11.0103C78.017 11.2642 78.0995 11.5921 78.0995 11.9941ZM82.327 12.9209C82.5217 12.9209 82.7142 12.904 82.9047 12.8701C83.0951 12.832 83.2686 12.7876 83.4252 12.7368V13.8667C83.2601 13.9386 83.0464 14 82.7841 14.0508C82.5217 14.1016 82.2487 14.127 81.9652 14.127C81.5674 14.127 81.2098 14.0614 80.8925 13.9302C80.5751 13.7948 80.3233 13.5641 80.1371 13.2383C79.9509 12.9124 79.8578 12.4618 79.8578 11.8862V8.10938H78.8993V7.44287L79.9276 6.91602L80.4164 5.41162H81.3558V6.97314H83.368V8.10938H81.3558V11.8672C81.3558 12.2227 81.4447 12.4871 81.6224 12.6606C81.8002 12.8341 82.035 12.9209 82.327 12.9209ZM86.3451 6.97314V14H84.8534V6.97314H86.3451ZM85.6088 4.28174C85.8373 4.28174 86.0341 4.3431 86.1991 4.46582C86.3684 4.58854 86.453 4.80013 86.453 5.10059C86.453 5.39681 86.3684 5.6084 86.1991 5.73535C86.0341 5.85807 85.8373 5.91943 85.6088 5.91943C85.3718 5.91943 85.1708 5.85807 85.0057 5.73535C84.8449 5.6084 84.7645 5.39681 84.7645 5.10059C84.7645 4.80013 84.8449 4.58854 85.0057 4.46582C85.1708 4.3431 85.3718 4.28174 85.6088 4.28174ZM92.1469 6.83984C92.9382 6.83984 93.5539 7.04508 93.994 7.45557C94.4384 7.86182 94.6605 8.51562 94.6605 9.41699V14H93.1688V9.69629C93.1688 9.15039 93.0567 8.74202 92.8324 8.47119C92.6081 8.19613 92.2611 8.05859 91.7914 8.05859C91.1101 8.05859 90.6361 8.26807 90.3695 8.68701C90.1071 9.10596 89.976 9.71322 89.976 10.5088V14H88.4843V6.97314H89.6459L89.8553 7.92529H89.9379C90.0902 7.67985 90.2785 7.47884 90.5028 7.32227C90.7313 7.16146 90.9852 7.04085 91.2645 6.96045C91.5481 6.88005 91.8422 6.83984 92.1469 6.83984ZM98.7548 17.123C97.8026 17.123 97.0726 16.9517 96.5648 16.6089C96.057 16.2661 95.8031 15.7858 95.8031 15.168C95.8031 14.7363 95.9385 14.3703 96.2094 14.0698C96.4802 13.7736 96.8674 13.5684 97.371 13.4541C97.1805 13.3695 97.0155 13.2383 96.8759 13.0605C96.7404 12.8786 96.6727 12.6776 96.6727 12.4575C96.6727 12.1951 96.7468 11.9709 96.8949 11.7847C97.043 11.5985 97.2652 11.4186 97.5614 11.2451C97.1932 11.0885 96.897 10.8346 96.6727 10.4834C96.4527 10.1279 96.3427 9.7111 96.3427 9.23291C96.3427 8.7251 96.4506 8.29346 96.6664 7.93799C96.8822 7.57829 97.1975 7.30534 97.6122 7.11914C98.0269 6.92871 98.5284 6.8335 99.1166 6.8335C99.2435 6.8335 99.3811 6.84196 99.5292 6.85889C99.6815 6.87158 99.8212 6.88851 99.9481 6.90967C100.079 6.9266 100.179 6.94564 100.246 6.9668H102.678V7.79834L101.484 8.02051C101.599 8.18132 101.689 8.3654 101.757 8.57275C101.825 8.77588 101.859 8.99805 101.859 9.23926C101.859 9.96712 101.607 10.5405 101.103 10.9595C100.604 11.3742 99.9143 11.5815 99.0341 11.5815C98.8225 11.5731 98.6172 11.5562 98.4183 11.5308C98.266 11.6239 98.1496 11.7275 98.0692 11.8418C97.9888 11.9518 97.9486 12.0767 97.9486 12.2163C97.9486 12.3306 97.9888 12.4237 98.0692 12.4956C98.1496 12.5633 98.2681 12.6141 98.4247 12.6479C98.5855 12.6818 98.7802 12.6987 99.0087 12.6987H100.221C100.991 12.6987 101.579 12.8617 101.986 13.1875C102.392 13.5133 102.595 13.9915 102.595 14.6221C102.595 15.4219 102.265 16.0376 101.605 16.4692C100.945 16.9051 99.9947 17.123 98.7548 17.123ZM98.8119 16.0757C99.3324 16.0757 99.7704 16.0249 100.126 15.9233C100.481 15.8218 100.75 15.6758 100.932 15.4854C101.114 15.2992 101.205 15.077 101.205 14.8188C101.205 14.5903 101.148 14.4147 101.034 14.292C100.919 14.1693 100.748 14.0846 100.519 14.0381C100.291 13.9915 100.007 13.9683 99.6688 13.9683H98.5643C98.2893 13.9683 98.0459 14.0106 97.8344 14.0952C97.6228 14.1841 97.4577 14.311 97.3392 14.4761C97.225 14.6411 97.1678 14.84 97.1678 15.0728C97.1678 15.3944 97.3096 15.6419 97.5931 15.8154C97.8809 15.9889 98.2872 16.0757 98.8119 16.0757ZM99.1039 10.604C99.5398 10.604 99.8635 10.4855 100.075 10.2485C100.287 10.0073 100.392 9.66878 100.392 9.23291C100.392 8.75895 100.282 8.40348 100.062 8.1665C99.8466 7.92952 99.5249 7.81104 99.0975 7.81104C98.6786 7.81104 98.3591 7.93164 98.139 8.17285C97.9232 8.41406 97.8153 8.77165 97.8153 9.24561C97.8153 9.67301 97.9232 10.0073 98.139 10.2485C98.3591 10.4855 98.6807 10.604 99.1039 10.604Z" fill="#1F2036"/>
<path d="M158.318 11.4736C158.318 12.0238 158.183 12.4977 157.912 12.8955C157.646 13.2933 157.26 13.598 156.757 13.8096C156.258 14.0212 155.661 14.127 154.967 14.127C154.628 14.127 154.305 14.1079 153.996 14.0698C153.687 14.0317 153.395 13.9767 153.12 13.9048C152.849 13.8286 152.601 13.7376 152.377 13.6318V12.1973C152.754 12.3623 153.175 12.5125 153.64 12.6479C154.106 12.7791 154.58 12.8447 155.062 12.8447C155.456 12.8447 155.781 12.7939 156.04 12.6924C156.302 12.5866 156.497 12.4385 156.624 12.248C156.751 12.0534 156.814 11.827 156.814 11.5688C156.814 11.2938 156.74 11.061 156.592 10.8706C156.444 10.6802 156.219 10.5067 155.919 10.3501C155.623 10.1893 155.25 10.0179 154.802 9.83594C154.497 9.71322 154.205 9.57357 153.926 9.41699C153.651 9.26042 153.405 9.07633 153.189 8.86475C152.974 8.65316 152.802 8.40348 152.675 8.11572C152.553 7.82373 152.491 7.48096 152.491 7.0874C152.491 6.56266 152.616 6.1141 152.866 5.7417C153.12 5.3693 153.475 5.08366 153.932 4.88477C154.393 4.68587 154.931 4.58643 155.544 4.58643C156.031 4.58643 156.488 4.63721 156.916 4.73877C157.347 4.84033 157.77 4.98421 158.185 5.17041L157.703 6.39551C157.322 6.23893 156.952 6.1141 156.592 6.021C156.236 5.9279 155.872 5.88135 155.5 5.88135C155.178 5.88135 154.905 5.93001 154.681 6.02734C154.457 6.12467 154.286 6.26221 154.167 6.43994C154.053 6.61344 153.996 6.8208 153.996 7.06201C153.996 7.33285 154.061 7.56136 154.192 7.74756C154.328 7.92952 154.535 8.09668 154.814 8.24902C155.098 8.40137 155.462 8.57064 155.906 8.75684C156.418 8.96842 156.852 9.19059 157.208 9.42334C157.567 9.65609 157.842 9.93538 158.033 10.2612C158.223 10.5828 158.318 10.987 158.318 11.4736ZM166.177 10.4707C166.177 11.0547 166.101 11.5731 165.948 12.0259C165.796 12.4787 165.574 12.8617 165.282 13.1748C164.99 13.4837 164.639 13.7207 164.228 13.8857C163.818 14.0465 163.354 14.127 162.838 14.127C162.355 14.127 161.913 14.0465 161.511 13.8857C161.109 13.7207 160.76 13.4837 160.464 13.1748C160.172 12.8617 159.946 12.4787 159.785 12.0259C159.624 11.5731 159.543 11.0547 159.543 10.4707C159.543 9.69629 159.677 9.04036 159.943 8.50293C160.214 7.96126 160.599 7.54867 161.099 7.26514C161.598 6.98161 162.193 6.83984 162.882 6.83984C163.53 6.83984 164.101 6.98161 164.596 7.26514C165.091 7.54867 165.479 7.96126 165.758 8.50293C166.037 9.0446 166.177 9.70052 166.177 10.4707ZM161.08 10.4707C161.08 10.9827 161.141 11.4207 161.264 11.7847C161.391 12.1486 161.585 12.4279 161.848 12.6226C162.11 12.813 162.449 12.9082 162.863 12.9082C163.278 12.9082 163.617 12.813 163.879 12.6226C164.141 12.4279 164.334 12.1486 164.457 11.7847C164.579 11.4207 164.641 10.9827 164.641 10.4707C164.641 9.95866 164.579 9.5249 164.457 9.16943C164.334 8.80973 164.141 8.53678 163.879 8.35059C163.617 8.16016 163.276 8.06494 162.857 8.06494C162.239 8.06494 161.788 8.2723 161.505 8.68701C161.221 9.10173 161.08 9.69629 161.08 10.4707ZM173.635 13.9937L172.747 10.7246C172.704 10.5638 172.654 10.3691 172.594 10.1406C172.535 9.91211 172.476 9.67725 172.417 9.43604C172.357 9.19059 172.302 8.96419 172.251 8.75684C172.205 8.54948 172.169 8.38867 172.144 8.27441H172.093C172.072 8.38867 172.038 8.54948 171.991 8.75684C171.945 8.96419 171.892 9.19059 171.833 9.43604C171.773 9.68148 171.714 9.92057 171.655 10.1533C171.6 10.3861 171.549 10.585 171.502 10.75L170.569 13.9937H168.932L166.964 6.9668H168.475L169.389 10.458C169.448 10.695 169.505 10.951 169.56 11.2261C169.619 11.5011 169.67 11.7635 169.712 12.0132C169.755 12.2629 169.786 12.4681 169.808 12.6289H169.858C169.875 12.5146 169.899 12.3708 169.928 12.1973C169.958 12.0195 169.992 11.8354 170.03 11.645C170.068 11.4504 170.106 11.2684 170.144 11.0991C170.182 10.9256 170.218 10.786 170.252 10.6802L171.331 6.9668H172.962L173.997 10.6802C174.044 10.841 174.094 11.0441 174.149 11.2896C174.204 11.5308 174.253 11.7741 174.295 12.0195C174.342 12.2607 174.372 12.4618 174.384 12.6226H174.435C174.452 12.4787 174.482 12.284 174.524 12.0386C174.571 11.7889 174.623 11.5244 174.683 11.2451C174.742 10.9616 174.803 10.6992 174.867 10.458L175.8 6.9668H177.285L175.305 13.9937H173.635ZM179.983 6.97314V14H178.491V6.97314H179.983ZM179.247 4.28174C179.475 4.28174 179.672 4.3431 179.837 4.46582C180.006 4.58854 180.091 4.80013 180.091 5.10059C180.091 5.39681 180.006 5.6084 179.837 5.73535C179.672 5.85807 179.475 5.91943 179.247 5.91943C179.01 5.91943 178.809 5.85807 178.644 5.73535C178.483 5.6084 178.402 5.39681 178.402 5.10059C178.402 4.80013 178.483 4.58854 178.644 4.46582C178.809 4.3431 179.01 4.28174 179.247 4.28174ZM185.785 6.83984C186.576 6.83984 187.192 7.04508 187.632 7.45557C188.076 7.86182 188.298 8.51562 188.298 9.41699V14H186.807V9.69629C186.807 9.15039 186.695 8.74202 186.47 8.47119C186.246 8.19613 185.899 8.05859 185.429 8.05859C184.748 8.05859 184.274 8.26807 184.007 8.68701C183.745 9.10596 183.614 9.71322 183.614 10.5088V14H182.122V6.97314H183.284L183.493 7.92529H183.576C183.728 7.67985 183.916 7.47884 184.141 7.32227C184.369 7.16146 184.623 7.04085 184.902 6.96045C185.186 6.88005 185.48 6.83984 185.785 6.83984ZM192.393 17.123C191.44 17.123 190.71 16.9517 190.203 16.6089C189.695 16.2661 189.441 15.7858 189.441 15.168C189.441 14.7363 189.576 14.3703 189.847 14.0698C190.118 13.7736 190.505 13.5684 191.009 13.4541C190.818 13.3695 190.653 13.2383 190.514 13.0605C190.378 12.8786 190.311 12.6776 190.311 12.4575C190.311 12.1951 190.385 11.9709 190.533 11.7847C190.681 11.5985 190.903 11.4186 191.199 11.2451C190.831 11.0885 190.535 10.8346 190.311 10.4834C190.091 10.1279 189.98 9.7111 189.98 9.23291C189.98 8.7251 190.088 8.29346 190.304 7.93799C190.52 7.57829 190.835 7.30534 191.25 7.11914C191.665 6.92871 192.166 6.8335 192.754 6.8335C192.881 6.8335 193.019 6.84196 193.167 6.85889C193.319 6.87158 193.459 6.88851 193.586 6.90967C193.717 6.9266 193.817 6.94564 193.884 6.9668H196.315V7.79834L195.122 8.02051C195.236 8.18132 195.327 8.3654 195.395 8.57275C195.463 8.77588 195.497 8.99805 195.497 9.23926C195.497 9.96712 195.245 10.5405 194.741 10.9595C194.242 11.3742 193.552 11.5815 192.672 11.5815C192.46 11.5731 192.255 11.5562 192.056 11.5308C191.904 11.6239 191.787 11.7275 191.707 11.8418C191.627 11.9518 191.586 12.0767 191.586 12.2163C191.586 12.3306 191.627 12.4237 191.707 12.4956C191.787 12.5633 191.906 12.6141 192.063 12.6479C192.223 12.6818 192.418 12.6987 192.647 12.6987H193.859C194.629 12.6987 195.217 12.8617 195.624 13.1875C196.03 13.5133 196.233 13.9915 196.233 14.6221C196.233 15.4219 195.903 16.0376 195.243 16.4692C194.583 16.9051 193.633 17.123 192.393 17.123ZM192.45 16.0757C192.97 16.0757 193.408 16.0249 193.764 15.9233C194.119 15.8218 194.388 15.6758 194.57 15.4854C194.752 15.2992 194.843 15.077 194.843 14.8188C194.843 14.5903 194.786 14.4147 194.671 14.292C194.557 14.1693 194.386 14.0846 194.157 14.0381C193.929 13.9915 193.645 13.9683 193.307 13.9683H192.202C191.927 13.9683 191.684 14.0106 191.472 14.0952C191.261 14.1841 191.096 14.311 190.977 14.4761C190.863 14.6411 190.806 14.84 190.806 15.0728C190.806 15.3944 190.947 15.6419 191.231 15.8154C191.519 15.9889 191.925 16.0757 192.45 16.0757ZM192.742 10.604C193.178 10.604 193.501 10.4855 193.713 10.2485C193.925 10.0073 194.03 9.66878 194.03 9.23291C194.03 8.75895 193.92 8.40348 193.7 8.1665C193.484 7.92952 193.163 7.81104 192.735 7.81104C192.316 7.81104 191.997 7.93164 191.777 8.17285C191.561 8.41406 191.453 8.77165 191.453 9.24561C191.453 9.67301 191.561 10.0073 191.777 10.2485C191.997 10.4855 192.319 10.604 192.742 10.604Z" fill="#1F2036"/>
<path d="M35.2479 91H33.496L30.6078 86.7852L29.6937 87.5278V91H28.1703V81.7197H29.6937V86.1567C29.8799 85.9282 30.0682 85.6997 30.2587 85.4712C30.4491 85.2427 30.6395 85.0142 30.83 84.7856L33.4452 81.7197H35.1654L31.6996 85.7822L35.2479 91ZM37.8124 81.123V83.605C37.8124 83.8631 37.8039 84.1149 37.787 84.3604C37.7743 84.6058 37.7595 84.7962 37.7426 84.9316H37.8251C37.9732 84.6862 38.1552 84.4852 38.371 84.3286C38.5868 84.1678 38.828 84.0472 39.0946 83.9668C39.3654 83.8864 39.6532 83.8462 39.9579 83.8462C40.4953 83.8462 40.9524 83.9372 41.329 84.1191C41.7056 84.2969 41.9934 84.5741 42.1923 84.9507C42.3954 85.3273 42.4969 85.8161 42.4969 86.417V91H41.0052V86.6963C41.0052 86.1504 40.8931 85.742 40.6688 85.4712C40.4445 85.1961 40.0975 85.0586 39.6278 85.0586C39.175 85.0586 38.8153 85.1538 38.5487 85.3442C38.2863 85.5304 38.098 85.8076 37.9838 86.1758C37.8695 86.5397 37.8124 86.984 37.8124 87.5088V91H36.3207V81.123H37.8124ZM47.3402 83.8398C48.2289 83.8398 48.8996 84.0366 49.3524 84.4302C49.8094 84.8237 50.038 85.4373 50.038 86.271V91H48.9779L48.6923 90.0034H48.6415C48.4426 90.2573 48.2373 90.4668 48.0258 90.6318C47.8142 90.7969 47.5687 90.9196 47.2894 91C47.0144 91.0846 46.6779 91.127 46.2802 91.127C45.8612 91.127 45.4867 91.0508 45.1566 90.8984C44.8265 90.7419 44.5663 90.5049 44.3759 90.1875C44.1854 89.8701 44.0902 89.4681 44.0902 88.9814C44.0902 88.2578 44.3589 87.714 44.8964 87.3501C45.438 86.9862 46.2548 86.7852 47.3466 86.7471L48.5653 86.7026V86.3345C48.5653 85.8478 48.451 85.5008 48.2225 85.2935C47.9983 85.0861 47.6809 84.9824 47.2704 84.9824C46.9191 84.9824 46.5785 85.0332 46.2484 85.1348C45.9183 85.2363 45.5967 85.3612 45.2836 85.5093L44.8011 84.4556C45.1439 84.2736 45.5332 84.1255 45.9691 84.0112C46.4092 83.897 46.8663 83.8398 47.3402 83.8398ZM48.559 87.6421L47.6512 87.6738C46.9065 87.6992 46.3838 87.8262 46.0834 88.0547C45.7829 88.2832 45.6327 88.5964 45.6327 88.9941C45.6327 89.3411 45.7364 89.5951 45.9437 89.7559C46.1511 89.9124 46.424 89.9907 46.7626 89.9907C47.2788 89.9907 47.7063 89.8447 48.0448 89.5527C48.3876 89.2565 48.559 88.8228 48.559 88.2515V87.6421ZM55.6874 83.8398C55.8059 83.8398 55.9349 83.8462 56.0746 83.8589C56.2142 83.8716 56.3348 83.8885 56.4364 83.9097L56.2968 85.3062C56.2079 85.2808 56.0979 85.2617 55.9667 85.249C55.8397 85.2363 55.7255 85.23 55.6239 85.23C55.3573 85.23 55.1034 85.2744 54.8622 85.3633C54.621 85.4479 54.4073 85.5791 54.2211 85.7568C54.0349 85.9303 53.8889 86.1483 53.7831 86.4106C53.6773 86.673 53.6244 86.9777 53.6244 87.3247V91H52.1263V83.9731H53.2943L53.4974 85.2109H53.5673C53.7069 84.9613 53.8804 84.7327 54.0878 84.5254C54.2951 84.318 54.5321 84.153 54.7987 84.0303C55.0695 83.9033 55.3658 83.8398 55.6874 83.8398ZM59.2294 83.9731V91H57.7377V83.9731H59.2294ZM58.493 81.2817C58.7216 81.2817 58.9183 81.3431 59.0834 81.4658C59.2526 81.5885 59.3373 81.8001 59.3373 82.1006C59.3373 82.3968 59.2526 82.6084 59.0834 82.7354C58.9183 82.8581 58.7216 82.9194 58.493 82.9194C58.2561 82.9194 58.0551 82.8581 57.89 82.7354C57.7292 82.6084 57.6488 82.3968 57.6488 82.1006C57.6488 81.8001 57.7292 81.5885 57.89 81.4658C58.0551 81.3431 58.2561 81.2817 58.493 81.2817ZM64.8788 85.1094H63.1713V91H61.6796V85.1094H60.5306V84.3921L61.6796 83.9541V83.4653C61.6796 82.8687 61.7727 82.3947 61.9589 82.0435C62.1493 81.6922 62.4201 81.4404 62.7714 81.2881C63.1268 81.1315 63.55 81.0532 64.0409 81.0532C64.3625 81.0532 64.6566 81.0807 64.9232 81.1357C65.1898 81.1865 65.4141 81.2458 65.5961 81.3135L65.2089 82.4434C65.065 82.3968 64.9042 82.3545 64.7264 82.3164C64.5487 82.2741 64.3583 82.2529 64.1552 82.2529C63.8166 82.2529 63.5669 82.3587 63.4061 82.5703C63.2496 82.7819 63.1713 83.0908 63.1713 83.4971V83.9731H64.8788V85.1094Z" fill="#1F2036"/>
<path d="M30.7792 117.72C31.579 117.72 32.2391 117.817 32.7596 118.012C33.2844 118.206 33.6737 118.503 33.9276 118.9C34.1858 119.298 34.3148 119.804 34.3148 120.417C34.3148 120.875 34.2302 121.264 34.0609 121.585C33.8916 121.907 33.6695 122.174 33.3944 122.385C33.1193 122.597 32.8252 122.766 32.5121 122.893L35.1464 127H33.4261L31.1854 123.28H29.6937V127H28.1703V117.72H30.7792ZM30.6776 118.989H29.6937V122.023H30.7474C31.4541 122.023 31.9662 121.892 32.2836 121.63C32.6052 121.368 32.766 120.98 32.766 120.468C32.766 119.931 32.5946 119.55 32.2518 119.326C31.9133 119.101 31.3885 118.989 30.6776 118.989ZM39.0756 119.84C39.9642 119.84 40.635 120.037 41.0878 120.43C41.5448 120.824 41.7733 121.437 41.7733 122.271V127H40.7133L40.4276 126.003H40.3768C40.1779 126.257 39.9727 126.467 39.7611 126.632C39.5495 126.797 39.3041 126.92 39.0248 127C38.7497 127.085 38.4133 127.127 38.0155 127.127C37.5966 127.127 37.222 127.051 36.892 126.898C36.5619 126.742 36.3016 126.505 36.1112 126.188C35.9208 125.87 35.8256 125.468 35.8256 124.981C35.8256 124.258 36.0943 123.714 36.6317 123.35C37.1734 122.986 37.9901 122.785 39.0819 122.747L40.3007 122.703V122.334C40.3007 121.848 40.1864 121.501 39.9579 121.293C39.7336 121.086 39.4162 120.982 39.0057 120.982C38.6545 120.982 38.3138 121.033 37.9838 121.135C37.6537 121.236 37.3321 121.361 37.0189 121.509L36.5365 120.456C36.8793 120.274 37.2686 120.125 37.7045 120.011C38.1446 119.897 38.6016 119.84 39.0756 119.84ZM40.2943 123.642L39.3866 123.674C38.6418 123.699 38.1192 123.826 37.8187 124.055C37.5183 124.283 37.368 124.596 37.368 124.994C37.368 125.341 37.4717 125.595 37.6791 125.756C37.8864 125.912 38.1594 125.991 38.4979 125.991C39.0142 125.991 39.4416 125.845 39.7802 125.553C40.1229 125.257 40.2943 124.823 40.2943 124.251V123.642ZM45.3534 117.123V119.503C45.3534 119.778 45.3449 120.049 45.328 120.316C45.3153 120.578 45.3026 120.784 45.2899 120.932H45.3534C45.5438 120.627 45.8083 120.371 46.1469 120.164C46.4896 119.952 46.9276 119.846 47.4608 119.846C48.2945 119.846 48.9652 120.153 49.473 120.767C49.9808 121.376 50.2347 122.279 50.2347 123.477C50.2347 124.273 50.1184 124.941 49.8856 125.483C49.6529 126.025 49.3249 126.435 48.9017 126.714C48.4828 126.989 47.9898 127.127 47.4227 127.127C46.8895 127.127 46.4579 127.03 46.1278 126.835C45.802 126.636 45.5459 126.405 45.3597 126.143H45.2518L44.9789 127H43.8617V117.123H45.3534ZM47.0673 121.059C46.6441 121.059 46.3077 121.143 46.058 121.312C45.8125 121.482 45.6348 121.736 45.5248 122.074C45.4148 122.409 45.3576 122.834 45.3534 123.35V123.483C45.3534 124.266 45.4761 124.865 45.7216 125.28C45.9712 125.694 46.424 125.902 47.08 125.902C47.6005 125.902 48.0004 125.692 48.2797 125.273C48.559 124.85 48.6986 124.245 48.6986 123.458C48.6986 122.662 48.559 122.064 48.2797 121.662C48.0046 121.26 47.6005 121.059 47.0673 121.059ZM53.453 119.973V127H51.9613V119.973H53.453ZM52.7167 117.282C52.9452 117.282 53.142 117.343 53.307 117.466C53.4763 117.589 53.5609 117.8 53.5609 118.101C53.5609 118.397 53.4763 118.608 53.307 118.735C53.142 118.858 52.9452 118.919 52.7167 118.919C52.4797 118.919 52.2787 118.858 52.1136 118.735C51.9528 118.608 51.8724 118.397 51.8724 118.101C51.8724 117.8 51.9528 117.589 52.1136 117.466C52.2787 117.343 52.4797 117.282 52.7167 117.282Z" fill="#1F2036"/>
<path d="M129.832 58.3848C129.617 58.3848 129.43 58.3711 129.269 58.3438C129.105 58.3203 128.965 58.2871 128.848 58.2441V57.0664C128.973 57.0977 129.107 57.125 129.252 57.1484C129.396 57.1719 129.551 57.1836 129.715 57.1836C129.93 57.1836 130.125 57.1426 130.301 57.0605C130.477 56.9785 130.615 56.8301 130.717 56.6152C130.822 56.4004 130.875 56.0977 130.875 55.707V47.4336H132.281V55.6602C132.281 56.2969 132.18 56.8145 131.977 57.2129C131.773 57.6152 131.488 57.9102 131.121 58.0977C130.754 58.2891 130.324 58.3848 129.832 58.3848ZM141.223 47.4336V52.9766C141.223 53.5742 141.096 54.1094 140.842 54.582C140.592 55.0547 140.213 55.4297 139.705 55.707C139.197 55.9805 138.559 56.1172 137.789 56.1172C136.691 56.1172 135.855 55.8301 135.281 55.2559C134.711 54.6777 134.426 53.9102 134.426 52.9531V47.4336H135.832V52.8301C135.832 53.5449 136 54.0723 136.336 54.4121C136.672 54.752 137.174 54.9219 137.842 54.9219C138.303 54.9219 138.678 54.8418 138.967 54.6816C139.26 54.5176 139.475 54.2793 139.611 53.9668C139.752 53.6504 139.822 53.2695 139.822 52.8242V47.4336H141.223ZM150.562 56H148.834L144.639 49.1621H144.586C144.602 49.3926 144.615 49.6367 144.627 49.8945C144.643 50.1523 144.654 50.418 144.662 50.6914C144.674 50.9648 144.684 51.2422 144.691 51.5234V56H143.414V47.4336H145.131L149.32 54.2246H149.361C149.353 54.0254 149.344 53.7969 149.332 53.5391C149.32 53.2812 149.309 53.0156 149.297 52.7422C149.289 52.4648 149.283 52.1973 149.279 51.9395V47.4336H150.562V56Z" fill="#1F2036"/>
<line x1="267.267" y1="137.001" x2="267.267" y2="36.9995" stroke="#CFE6FF"/>
<path d="M208.7 59.5835C208.467 59.5835 208.264 59.5687 208.091 59.5391C207.913 59.5137 207.761 59.4777 207.634 59.4312V58.1553C207.769 58.1891 207.915 58.2188 208.072 58.2441C208.228 58.2695 208.395 58.2822 208.573 58.2822C208.806 58.2822 209.018 58.2378 209.208 58.1489C209.398 58.0601 209.549 57.8993 209.659 57.6665C209.773 57.4338 209.83 57.1058 209.83 56.6826V47.7197H211.353V56.6318C211.353 57.3216 211.243 57.8823 211.023 58.314C210.803 58.7498 210.494 59.0693 210.097 59.2725C209.699 59.4798 209.233 59.5835 208.7 59.5835ZM221.04 47.7197V53.7246C221.04 54.3721 220.902 54.9518 220.627 55.4639C220.357 55.9759 219.946 56.3822 219.396 56.6826C218.846 56.9788 218.154 57.127 217.32 57.127C216.131 57.127 215.226 56.8159 214.603 56.1938C213.986 55.5675 213.677 54.736 213.677 53.6992V47.7197H215.2V53.5659C215.2 54.3403 215.382 54.9116 215.746 55.2798C216.11 55.6479 216.654 55.832 217.377 55.832C217.877 55.832 218.283 55.7453 218.596 55.5718C218.914 55.394 219.146 55.1359 219.294 54.7974C219.447 54.4546 219.523 54.042 219.523 53.5596V47.7197H221.04ZM223.414 57V47.7197H224.937V55.7051H228.879V57H223.414Z" fill="#1F2036"/>
<line x1="355.882" y1="37.0019" x2="355.5" y2="137.002" stroke="#CFE6FF"/>
<path d="M304.452 57L303.545 54.4229H299.996L299.089 57H297.483L300.936 47.6816H302.624L306.071 57H304.452ZM303.151 53.1152L302.269 50.5762C302.235 50.4661 302.186 50.3117 302.123 50.1128C302.059 49.9097 301.996 49.7044 301.932 49.4971C301.869 49.2855 301.816 49.1077 301.774 48.9639C301.731 49.1374 301.678 49.332 301.615 49.5479C301.556 49.7594 301.497 49.9583 301.437 50.1445C301.382 50.3307 301.34 50.4746 301.31 50.5762L300.422 53.1152H303.151ZM314.583 47.7197V53.7246C314.583 54.3721 314.446 54.9518 314.171 55.4639C313.9 55.9759 313.489 56.3822 312.939 56.6826C312.389 56.9788 311.697 57.127 310.864 57.127C309.674 57.127 308.769 56.8159 308.147 56.1938C307.529 55.5675 307.22 54.736 307.22 53.6992V47.7197H308.743V53.5659C308.743 54.3403 308.925 54.9116 309.289 55.2798C309.653 55.6479 310.197 55.832 310.921 55.832C311.42 55.832 311.826 55.7453 312.139 55.5718C312.457 55.394 312.69 55.1359 312.838 54.7974C312.99 54.4546 313.066 54.042 313.066 53.5596V47.7197H314.583ZM320.702 51.96H324.168V56.6191C323.682 56.7799 323.178 56.9048 322.658 56.9937C322.137 57.0825 321.553 57.127 320.906 57.127C319.962 57.127 319.162 56.9408 318.506 56.5684C317.854 56.1917 317.359 55.6479 317.021 54.937C316.682 54.2218 316.513 53.3607 316.513 52.3535C316.513 51.3844 316.701 50.5444 317.078 49.8335C317.455 49.1183 318.003 48.5661 318.722 48.1768C319.441 47.7832 320.313 47.5864 321.337 47.5864C321.841 47.5864 322.327 47.6372 322.797 47.7388C323.271 47.8361 323.705 47.9715 324.098 48.145L323.565 49.4019C323.252 49.2537 322.901 49.1289 322.512 49.0273C322.122 48.9258 321.718 48.875 321.299 48.875C320.635 48.875 320.061 49.0189 319.579 49.3066C319.101 49.5944 318.733 50.0007 318.474 50.5254C318.216 51.0459 318.087 51.6616 318.087 52.3726C318.087 53.0623 318.191 53.6675 318.398 54.188C318.606 54.7085 318.929 55.1147 319.369 55.4067C319.814 55.6945 320.387 55.8384 321.09 55.8384C321.441 55.8384 321.739 55.8193 321.985 55.7812C322.23 55.7432 322.456 55.7008 322.664 55.6543V53.2612H320.702V51.96Z" fill="#1F2036"/>
<line x1="442.732" y1="37.0012" x2="442.502" y2="136.001" stroke="#CFE6FF"/>
<path d="M391.907 54.4736C391.907 55.0238 391.771 55.4977 391.5 55.8955C391.234 56.2933 390.849 56.598 390.345 56.8096C389.846 57.0212 389.249 57.127 388.555 57.127C388.217 57.127 387.893 57.1079 387.584 57.0698C387.275 57.0317 386.983 56.9767 386.708 56.9048C386.437 56.8286 386.189 56.7376 385.965 56.6318V55.1973C386.342 55.3623 386.763 55.5125 387.228 55.6479C387.694 55.7791 388.168 55.8447 388.65 55.8447C389.044 55.8447 389.37 55.7939 389.628 55.6924C389.89 55.5866 390.085 55.4385 390.212 55.248C390.339 55.0534 390.402 54.827 390.402 54.5688C390.402 54.2938 390.328 54.061 390.18 53.8706C390.032 53.6802 389.808 53.5067 389.507 53.3501C389.211 53.1893 388.839 53.0179 388.39 52.8359C388.085 52.7132 387.793 52.5736 387.514 52.417C387.239 52.2604 386.994 52.0763 386.778 51.8647C386.562 51.6532 386.391 51.4035 386.264 51.1157C386.141 50.8237 386.079 50.481 386.079 50.0874C386.079 49.5627 386.204 49.1141 386.454 48.7417C386.708 48.3693 387.063 48.0837 387.52 47.8848C387.982 47.6859 388.519 47.5864 389.133 47.5864C389.619 47.5864 390.076 47.6372 390.504 47.7388C390.935 47.8403 391.359 47.9842 391.773 48.1704L391.291 49.3955C390.91 49.2389 390.54 49.1141 390.18 49.021C389.825 48.9279 389.461 48.8813 389.088 48.8813C388.767 48.8813 388.494 48.93 388.269 49.0273C388.045 49.1247 387.874 49.2622 387.755 49.4399C387.641 49.6134 387.584 49.8208 387.584 50.062C387.584 50.3328 387.649 50.5614 387.781 50.7476C387.916 50.9295 388.123 51.0967 388.403 51.249C388.686 51.4014 389.05 51.5706 389.495 51.7568C390.007 51.9684 390.44 52.1906 390.796 52.4233C391.155 52.6561 391.431 52.9354 391.621 53.2612C391.811 53.5828 391.907 53.987 391.907 54.4736ZM398.953 57H393.697V47.7197H398.953V49.002H395.22V51.522H398.718V52.7979H395.22V55.7114H398.953V57ZM403.656 47.7197C404.854 47.7197 405.728 47.9652 406.278 48.4561C406.828 48.9469 407.103 49.6346 407.103 50.519C407.103 50.9211 407.039 51.304 406.912 51.668C406.79 52.0277 406.587 52.3472 406.303 52.6265C406.02 52.9015 405.645 53.1195 405.18 53.2803C404.718 53.4411 404.149 53.5215 403.472 53.5215H402.482V57H400.958V47.7197H403.656ZM403.555 48.9829H402.482V52.252H403.313C403.792 52.252 404.198 52.1969 404.532 52.0869C404.866 51.9727 405.12 51.7928 405.294 51.5474C405.467 51.3019 405.554 50.9782 405.554 50.5762C405.554 50.0387 405.391 49.6388 405.065 49.3765C404.744 49.1141 404.24 48.9829 403.555 48.9829Z" fill="#1F2036"/>
<line x1="532.576" y1="37.0004" x2="532.501" y2="137" stroke="#CFE6FF"/>
<path d="M479.641 52.3472C479.641 53.0623 479.55 53.714 479.368 54.3022C479.191 54.8862 478.922 55.3898 478.562 55.813C478.203 56.2319 477.752 56.5557 477.21 56.7842C476.669 57.0127 476.034 57.127 475.306 57.127C474.565 57.127 473.922 57.0127 473.376 56.7842C472.835 56.5557 472.384 56.2298 472.024 55.8066C471.669 55.3835 471.402 54.8778 471.224 54.2896C471.047 53.7013 470.958 53.0496 470.958 52.3345C470.958 51.3781 471.114 50.5444 471.427 49.8335C471.745 49.1183 472.225 48.564 472.868 48.1704C473.516 47.7726 474.333 47.5737 475.319 47.5737C476.283 47.5737 477.085 47.7705 477.724 48.1641C478.363 48.5576 478.842 49.112 479.159 49.8271C479.481 50.5381 479.641 51.3781 479.641 52.3472ZM472.557 52.3472C472.557 53.0623 472.655 53.6823 472.849 54.207C473.044 54.7275 473.342 55.1296 473.744 55.4131C474.151 55.6924 474.671 55.832 475.306 55.832C475.945 55.832 476.465 55.6924 476.867 55.4131C477.269 55.1296 477.566 54.7275 477.756 54.207C477.947 53.6823 478.042 53.0623 478.042 52.3472C478.042 51.2596 477.824 50.409 477.388 49.7954C476.956 49.1776 476.267 48.8687 475.319 48.8687C474.684 48.8687 474.161 49.0083 473.751 49.2876C473.344 49.5669 473.044 49.9668 472.849 50.4873C472.655 51.0036 472.557 51.6235 472.557 52.3472ZM485.589 48.8813C485.145 48.8813 484.747 48.9618 484.396 49.1226C484.049 49.2834 483.755 49.5161 483.513 49.8208C483.272 50.1213 483.088 50.4873 482.961 50.9189C482.834 51.3464 482.771 51.8288 482.771 52.3662C482.771 53.0856 482.872 53.7056 483.075 54.2261C483.279 54.7424 483.587 55.1401 484.002 55.4194C484.417 55.6945 484.942 55.832 485.576 55.832C485.97 55.832 486.353 55.7939 486.725 55.7178C487.098 55.6416 487.483 55.5379 487.881 55.4067V56.7017C487.504 56.8498 487.123 56.9577 486.738 57.0254C486.353 57.0931 485.909 57.127 485.405 57.127C484.457 57.127 483.67 56.9302 483.044 56.5366C482.422 56.1431 481.956 55.5887 481.647 54.8735C481.343 54.1584 481.19 53.3205 481.19 52.3599C481.19 51.6574 481.288 51.0142 481.482 50.4302C481.677 49.8462 481.96 49.3426 482.333 48.9194C482.705 48.492 483.164 48.1641 483.71 47.9355C484.26 47.7028 484.889 47.5864 485.595 47.5864C486.061 47.5864 486.518 47.6393 486.967 47.7451C487.419 47.8467 487.838 47.9927 488.223 48.1831L487.69 49.4399C487.369 49.2876 487.032 49.1564 486.681 49.0464C486.33 48.9364 485.966 48.8813 485.589 48.8813ZM493.092 57H491.562V49.0146H488.845V47.7197H495.802V49.0146H493.092V57Z" fill="#1F2036"/>
<line x1="619.426" y1="36.9996" x2="619.5" y2="137" stroke="#CFE6FF"/>
<path d="M565.996 57H564.123L559.578 49.5923H559.521C559.538 49.842 559.553 50.1064 559.566 50.3857C559.583 50.665 559.595 50.9528 559.604 51.249C559.616 51.5452 559.627 51.8457 559.635 52.1504V57H558.252V47.7197H560.112L564.65 55.0767H564.695C564.686 54.8608 564.675 54.6133 564.663 54.334C564.65 54.0547 564.637 53.7669 564.625 53.4707C564.616 53.1702 564.61 52.8804 564.606 52.6011V47.7197H565.996V57ZM576.673 52.3472C576.673 53.0623 576.582 53.714 576.4 54.3022C576.222 54.8862 575.953 55.3898 575.593 55.813C575.234 56.2319 574.783 56.5557 574.241 56.7842C573.7 57.0127 573.065 57.127 572.337 57.127C571.597 57.127 570.953 57.0127 570.407 56.7842C569.866 56.5557 569.415 56.2298 569.055 55.8066C568.7 55.3835 568.433 54.8778 568.256 54.2896C568.078 53.7013 567.989 53.0496 567.989 52.3345C567.989 51.3781 568.146 50.5444 568.459 49.8335C568.776 49.1183 569.256 48.564 569.9 48.1704C570.547 47.7726 571.364 47.5737 572.35 47.5737C573.315 47.5737 574.117 47.7705 574.756 48.1641C575.395 48.5576 575.873 49.112 576.19 49.8271C576.512 50.5381 576.673 51.3781 576.673 52.3472ZM569.589 52.3472C569.589 53.0623 569.686 53.6823 569.881 54.207C570.075 54.7275 570.374 55.1296 570.776 55.4131C571.182 55.6924 571.702 55.832 572.337 55.832C572.976 55.832 573.497 55.6924 573.899 55.4131C574.301 55.1296 574.597 54.7275 574.787 54.207C574.978 53.6823 575.073 53.0623 575.073 52.3472C575.073 51.2596 574.855 50.409 574.419 49.7954C573.987 49.1776 573.298 48.8687 572.35 48.8687C571.715 48.8687 571.192 49.0083 570.782 49.2876C570.376 49.5669 570.075 49.9668 569.881 50.4873C569.686 51.0036 569.589 51.6235 569.589 52.3472ZM585.547 47.7197L582.303 57H580.691L577.447 47.7197H579.008L580.964 53.5342C581.023 53.7035 581.086 53.9087 581.154 54.1499C581.226 54.3911 581.292 54.6344 581.351 54.8799C581.414 55.1253 581.463 55.3433 581.497 55.5337C581.531 55.3433 581.577 55.1253 581.636 54.8799C581.7 54.6344 581.765 54.3911 581.833 54.1499C581.901 53.9087 581.964 53.7013 582.024 53.5278L583.985 47.7197H585.547Z" fill="#1F2036"/>
<line x1="703.28" y1="36.9989" x2="703.5" y2="135.999" stroke="#CFE6FF"/>
<path d="M655.631 52.271C655.631 53.3162 655.436 54.1901 655.047 54.8926C654.657 55.5908 654.092 56.1177 653.352 56.4731C652.611 56.8244 651.718 57 650.673 57H648.096V47.7197H650.952C651.913 47.7197 652.742 47.8932 653.441 48.2402C654.139 48.583 654.678 49.0929 655.059 49.77C655.44 50.4429 655.631 51.2765 655.631 52.271ZM654.044 52.3154C654.044 51.5537 653.923 50.9274 653.682 50.4365C653.445 49.9456 653.094 49.5817 652.628 49.3447C652.167 49.1035 651.598 48.9829 650.921 48.9829H649.619V55.7241H650.698C651.82 55.7241 652.658 55.4385 653.212 54.8672C653.766 54.2959 654.044 53.4453 654.044 52.3154ZM662.886 57H657.63V47.7197H662.886V49.002H659.154V51.522H662.651V52.7979H659.154V55.7114H662.886V57ZM668.846 48.8813C668.402 48.8813 668.004 48.9618 667.653 49.1226C667.306 49.2834 667.012 49.5161 666.771 49.8208C666.529 50.1213 666.345 50.4873 666.218 50.9189C666.091 51.3464 666.028 51.8288 666.028 52.3662C666.028 53.0856 666.13 53.7056 666.333 54.2261C666.536 54.7424 666.845 55.1401 667.259 55.4194C667.674 55.6945 668.199 55.832 668.834 55.832C669.227 55.832 669.61 55.7939 669.983 55.7178C670.355 55.6416 670.74 55.5379 671.138 55.4067V56.7017C670.761 56.8498 670.38 56.9577 669.995 57.0254C669.61 57.0931 669.166 57.127 668.662 57.127C667.714 57.127 666.927 56.9302 666.301 56.5366C665.679 56.1431 665.213 55.5887 664.904 54.8735C664.6 54.1584 664.447 53.3205 664.447 52.3599C664.447 51.6574 664.545 51.0142 664.739 50.4302C664.934 49.8462 665.218 49.3426 665.59 48.9194C665.962 48.492 666.422 48.1641 666.967 47.9355C667.518 47.7028 668.146 47.5864 668.853 47.5864C669.318 47.5864 669.775 47.6393 670.224 47.7451C670.677 47.8467 671.096 47.9927 671.481 48.1831L670.947 49.4399C670.626 49.2876 670.289 49.1564 669.938 49.0464C669.587 48.9364 669.223 48.8813 668.846 48.8813Z" fill="#1F2036"/>
<path d="M733.79 59.5835C733.557 59.5835 733.354 59.5687 733.181 59.5391C733.003 59.5137 732.851 59.4777 732.724 59.4312V58.1553C732.859 58.1891 733.005 58.2188 733.162 58.2441C733.318 58.2695 733.485 58.2822 733.663 58.2822C733.896 58.2822 734.107 58.2378 734.298 58.1489C734.488 58.0601 734.639 57.8993 734.749 57.6665C734.863 57.4338 734.92 57.1058 734.92 56.6826V47.7197H736.443V56.6318C736.443 57.3216 736.333 57.8823 736.113 58.314C735.893 58.7498 735.584 59.0693 735.187 59.2725C734.789 59.4798 734.323 59.5835 733.79 59.5835ZM744.594 57L743.686 54.4229H740.138L739.23 57H737.624L741.077 47.6816H742.766L746.212 57H744.594ZM743.293 53.1152L742.41 50.5762C742.376 50.4661 742.328 50.3117 742.264 50.1128C742.201 49.9097 742.137 49.7044 742.074 49.4971C742.01 49.2855 741.957 49.1077 741.915 48.9639C741.873 49.1374 741.82 49.332 741.756 49.5479C741.697 49.7594 741.638 49.9583 741.579 50.1445C741.524 50.3307 741.481 50.4746 741.452 50.5762L740.563 53.1152H743.293ZM755.182 57H753.309L748.764 49.5923H748.707C748.724 49.842 748.739 50.1064 748.752 50.3857C748.768 50.665 748.781 50.9528 748.79 51.249C748.802 51.5452 748.813 51.8457 748.821 52.1504V57H747.438V47.7197H749.297L753.836 55.0767H753.88C753.872 54.8608 753.861 54.6133 753.849 54.334C753.836 54.0547 753.823 53.7669 753.811 53.4707C753.802 53.1702 753.796 52.8804 753.792 52.6011V47.7197H755.182V57Z" fill="#1F2036"/>
<line x1="877.978" y1="36.9974" x2="878.495" y2="135.997" stroke="#CFE6FF"/>
<path d="M824.304 57H822.793V47.7197H828.036V49.002H824.304V51.8965H827.795V53.1724H824.304V57ZM834.981 57H829.725V47.7197H834.981V49.002H831.248V51.522H834.746V52.7979H831.248V55.7114H834.981V57ZM836.987 47.7197H839.748C840.945 47.7197 841.849 47.8932 842.458 48.2402C843.068 48.5872 843.372 49.186 843.372 50.0366C843.372 50.3921 843.309 50.7137 843.182 51.0015C843.059 51.285 842.879 51.5199 842.642 51.7061C842.405 51.888 842.113 52.0107 841.766 52.0742V52.1377C842.126 52.2012 842.445 52.3133 842.725 52.4741C843.008 52.6349 843.23 52.8656 843.391 53.166C843.556 53.4665 843.639 53.8558 843.639 54.334C843.639 54.901 843.503 55.3835 843.233 55.7812C842.966 56.179 842.583 56.4816 842.084 56.689C841.589 56.8963 841 57 840.319 57H836.987V47.7197ZM838.51 51.5474H839.97C840.66 51.5474 841.138 51.4352 841.404 51.2109C841.671 50.9867 841.804 50.6587 841.804 50.2271C841.804 49.7869 841.646 49.4696 841.328 49.2749C841.015 49.0802 840.516 48.9829 839.83 48.9829H838.51V51.5474ZM838.51 52.7788V55.7241H840.116C840.827 55.7241 841.326 55.5866 841.614 55.3115C841.902 55.0365 842.046 54.6641 842.046 54.1943C842.046 53.9066 841.98 53.6569 841.849 53.4453C841.722 53.2337 841.512 53.0708 841.22 52.9565C840.928 52.8381 840.535 52.7788 840.04 52.7788H838.51Z" fill="#1F2036"/>
<line x1="965.825" y1="37.0016" x2="965.503" y2="136.002" stroke="#CFE6FF"/>
<path d="M906.66 57L903.988 49.2495H903.931C903.943 49.423 903.958 49.66 903.975 49.9604C903.992 50.2609 904.007 50.5825 904.019 50.9253C904.032 51.2681 904.039 51.596 904.039 51.9092V57H902.655V47.7197H904.794L907.365 55.1274H907.403L910.062 47.7197H912.195V57H910.742V51.833C910.742 51.5495 910.746 51.2427 910.754 50.9126C910.767 50.5825 910.78 50.2694 910.792 49.9731C910.809 49.6769 910.822 49.4399 910.831 49.2622H910.78L908.006 57H906.66ZM920.39 57L919.482 54.4229H915.934L915.026 57H913.42L916.873 47.6816H918.562L922.009 57H920.39ZM919.089 53.1152L918.206 50.5762C918.173 50.4661 918.124 50.3117 918.06 50.1128C917.997 49.9097 917.934 49.7044 917.87 49.4971C917.807 49.2855 917.754 49.1077 917.711 48.9639C917.669 49.1374 917.616 49.332 917.553 49.5479C917.493 49.7594 917.434 49.9583 917.375 50.1445C917.32 50.3307 917.278 50.4746 917.248 50.5762L916.359 53.1152H919.089ZM925.843 47.7197C926.643 47.7197 927.303 47.8171 927.823 48.0117C928.348 48.2064 928.737 48.5026 928.991 48.9004C929.249 49.2982 929.378 49.8039 929.378 50.4175C929.378 50.8745 929.294 51.2638 929.124 51.5854C928.955 51.9071 928.733 52.1737 928.458 52.3853C928.183 52.5968 927.889 52.7661 927.576 52.8931L930.21 57H928.49L926.249 53.2803H924.757V57H923.234V47.7197H925.843ZM925.741 48.9893H924.757V52.0234H925.811C926.518 52.0234 927.03 51.8923 927.347 51.6299C927.669 51.3675 927.83 50.9803 927.83 50.4683C927.83 49.9308 927.658 49.55 927.315 49.3257C926.977 49.1014 926.452 48.9893 925.741 48.9893Z" fill="#1F2036"/>
<line x1="1052.5" y1="35.9991" x2="1052.67" y2="136.999" stroke="#CFE6FF"/>
<path d="M999.248 57L998.341 54.4229H994.792L993.885 57H992.279L995.732 47.6816H997.42L1000.87 57H999.248ZM997.947 53.1152L997.065 50.5762C997.031 50.4661 996.982 50.3117 996.919 50.1128C996.855 49.9097 996.792 49.7044 996.728 49.4971C996.665 49.2855 996.612 49.1077 996.57 48.9639C996.527 49.1374 996.474 49.332 996.411 49.5479C996.352 49.7594 996.292 49.9583 996.233 50.1445C996.178 50.3307 996.136 50.4746 996.106 50.5762L995.218 53.1152H997.947ZM1004.79 47.7197C1005.99 47.7197 1006.86 47.9652 1007.41 48.4561C1007.96 48.9469 1008.24 49.6346 1008.24 50.519C1008.24 50.9211 1008.17 51.304 1008.05 51.668C1007.92 52.0277 1007.72 52.3472 1007.44 52.6265C1007.15 52.9015 1006.78 53.1195 1006.31 53.2803C1005.85 53.4411 1005.28 53.5215 1004.61 53.5215H1003.62V57H1002.09V47.7197H1004.79ZM1004.69 48.9829H1003.62V52.252H1004.45C1004.93 52.252 1005.33 52.1969 1005.67 52.0869C1006 51.9727 1006.25 51.7928 1006.43 51.5474C1006.6 51.3019 1006.69 50.9782 1006.69 50.5762C1006.69 50.0387 1006.52 49.6388 1006.2 49.3765C1005.88 49.1141 1005.37 48.9829 1004.69 48.9829ZM1012.7 47.7197C1013.5 47.7197 1014.16 47.8171 1014.68 48.0117C1015.2 48.2064 1015.59 48.5026 1015.85 48.9004C1016.11 49.2982 1016.23 49.8039 1016.23 50.4175C1016.23 50.8745 1016.15 51.2638 1015.98 51.5854C1015.81 51.9071 1015.59 52.1737 1015.31 52.3853C1015.04 52.5968 1014.75 52.7661 1014.43 52.8931L1017.07 57H1015.35L1013.11 53.2803H1011.61V57H1010.09V47.7197H1012.7ZM1012.6 48.9893H1011.61V52.0234H1012.67C1013.37 52.0234 1013.89 51.8923 1014.2 51.6299C1014.52 51.3675 1014.69 50.9803 1014.69 50.4683C1014.69 49.9308 1014.51 49.55 1014.17 49.3257C1013.83 49.1014 1013.31 48.9893 1012.6 48.9893Z" fill="#1F2036"/>
<path d="M1082.36 57L1079.68 49.2495H1079.63C1079.64 49.423 1079.65 49.66 1079.67 49.9604C1079.69 50.2609 1079.7 50.5825 1079.71 50.9253C1079.73 51.2681 1079.73 51.596 1079.73 51.9092V57H1078.35V47.7197H1080.49L1083.06 55.1274H1083.1L1085.76 47.7197H1087.89V57H1086.44V51.833C1086.44 51.5495 1086.44 51.2427 1086.45 50.9126C1086.46 50.5825 1086.48 50.2694 1086.49 49.9731C1086.5 49.6769 1086.52 49.4399 1086.53 49.2622H1086.48L1083.7 57H1082.36ZM1096.09 57L1095.18 54.4229H1091.63L1090.72 57H1089.12L1092.57 47.6816H1094.26L1097.7 57H1096.09ZM1094.78 53.1152L1093.9 50.5762C1093.87 50.4661 1093.82 50.3117 1093.76 50.1128C1093.69 49.9097 1093.63 49.7044 1093.57 49.4971C1093.5 49.2855 1093.45 49.1077 1093.41 48.9639C1093.36 49.1374 1093.31 49.332 1093.25 49.5479C1093.19 49.7594 1093.13 49.9583 1093.07 50.1445C1093.02 50.3307 1092.97 50.4746 1092.94 50.5762L1092.05 53.1152H1094.78ZM1101.56 51.9536L1103.76 47.7197H1105.4L1102.32 53.3945V57H1100.8V53.4517L1097.71 47.7197H1099.37L1101.56 51.9536Z" fill="#1F2036"/>
<mask id="path-32-inside-1_130_235" fill="white">
<path d="M102.82 71H180.685V103H102.82V71Z"/>
</mask>
<path d="M102.82 71H180.685V103H102.82V71Z" fill="#3187B9"/>
<path d="M103.82 103V71H101.82V103H103.82Z" fill="#CFE6FF" mask="url(#path-32-inside-1_130_235)"/>
<path d="M122 2.5H142C144.485 2.5 146.5 4.51472 146.5 7V12C146.5 14.4853 144.485 16.5 142 16.5H122C119.515 16.5 117.5 14.4853 117.5 12V9.5V7C117.5 4.51472 119.515 2.5 122 2.5Z" fill="#3187B9" stroke="#CFE6FF"/>
<mask id="path-35-inside-2_130_235" fill="white">
<path d="M180.685 71H267.535V103H180.685V71Z"/>
</mask>
<path d="M180.685 71H267.535V103H180.685V71Z" fill="#3187B9"/>
<path d="M181.685 103V71H179.685V103H181.685Z" fill="#CFE6FF" mask="url(#path-35-inside-2_130_235)"/>
<mask id="path-37-inside-3_130_235" fill="white">
<path d="M267.535 71H355.382V103H267.535V71Z"/>
</mask>
<path d="M267.535 71H355.382V103H267.535V71Z" fill="#3187B9"/>
<path d="M268.535 103V71H266.535V103H268.535Z" fill="#CFE6FF" mask="url(#path-37-inside-3_130_235)"/>
<mask id="path-39-inside-4_130_235" fill="white">
<path d="M619 104H703V136H619V104Z"/>
</mask>
<path d="M619 104H703V136H619V104Z" fill="#3187B9"/>
<path d="M620 136V104H618V136H620Z" fill="#CFE6FF" mask="url(#path-39-inside-4_130_235)"/>
<mask id="path-41-inside-5_130_235" fill="white">
<path d="M703 104H790.6V136H703V104Z"/>
</mask>
<path d="M703 104H790.6V136H703V104Z" fill="#3187B9"/>
<path d="M704 136V104H702V136H704Z" fill="#CFE6FF" mask="url(#path-41-inside-5_130_235)"/>
<mask id="path-43-inside-6_130_235" fill="white">
<path d="M1052 71H1138.7V103H1052V71Z"/>
</mask>
<path d="M1052 71H1138.7V103H1052V71Z" fill="#3187B9"/>
<path d="M1053 103V71H1051V103H1053Z" fill="#CFE6FF" mask="url(#path-43-inside-6_130_235)"/>
<mask id="path-45-inside-7_130_235" fill="white">
<path d="M355.382 71H442.232V103H355.382V71Z"/>
</mask>
<path d="M355.382 71H442.232V103H355.382V71Z" fill="#9AC23C"/>
<path d="M356.382 103V71H354.382V103H356.382Z" fill="#CFE6FF" mask="url(#path-45-inside-7_130_235)"/>
<path d="M5 2.5H25C27.4853 2.5 29.5 4.51472 29.5 7V12C29.5 14.4853 27.4853 16.5 25 16.5H5C2.51472 16.5 0.5 14.4853 0.5 12V7C0.5 4.51472 2.51472 2.5 5 2.5Z" fill="#9AC23C" stroke="#CFE6FF"/>
<mask id="path-48-inside-8_130_235" fill="white">
<path d="M442.232 71H532.076V103H442.232V71Z"/>
</mask>
<path d="M442.232 71H532.076V103H442.232V71Z" fill="#9AC23C"/>
<path d="M443.232 103V71H441.232V103H443.232Z" fill="#CFE6FF" mask="url(#path-48-inside-8_130_235)"/>
<mask id="path-50-inside-9_130_235" fill="white">
<path d="M532.076 71H618.926V103H532.076V71Z"/>
</mask>
<path d="M532.076 71H618.926V103H532.076V71Z" fill="#9AC23C"/>
<path d="M533.076 103V71H531.076V103H533.076Z" fill="#CFE6FF" mask="url(#path-50-inside-9_130_235)"/>
<mask id="path-52-inside-10_130_235" fill="white">
<path d="M619 71H703V103H619V71Z"/>
</mask>
<path d="M619 71H703V103H619V71Z" fill="#9AC23C"/>
<path d="M620 103V71H618V103H620Z" fill="#CFE6FF" mask="url(#path-52-inside-10_130_235)"/>
<mask id="path-54-inside-11_130_235" fill="white">
<path d="M703 71H790.6V103H703V71Z"/>
</mask>
<path d="M703 71H790.6V103H703V71Z" fill="#9AC23C"/>
<path d="M704 103V71H702V103H704Z" fill="#CFE6FF" mask="url(#path-54-inside-11_130_235)"/>
<mask id="path-56-inside-12_130_235" fill="white">
<path d="M965.325 104H1052.17V136H965.325V104Z"/>
</mask>
<path d="M965.325 104H1052.17V136H965.325V104Z" fill="#9AC23C"/>
<path d="M966.325 136V104H964.325V136H966.325Z" fill="#CFE6FF" mask="url(#path-56-inside-12_130_235)"/>
<mask id="path-58-inside-13_130_235" fill="white">
<path d="M1052 104H1138.7V133C1138.7 134.657 1137.36 136 1135.7 136H1052V104Z"/>
</mask>
<path d="M1052 104H1138.7V133C1138.7 134.657 1137.36 136 1135.7 136H1052V104Z" fill="#9AC23C"/>
<path d="M1052 104H1138.7H1052ZM1138.7 136H1052H1138.7ZM1051 136V104H1053V136H1051ZM1138.7 104V136V104Z" fill="#CFE6FF" mask="url(#path-58-inside-13_130_235)"/>
<g style="mix-blend-mode:multiply">
<path d="M2.01235 39.4587C2.01402 37.803 3.35667 36.4617 5.01235 36.4617H1136.24C1137.9 36.4617 1139.24 37.8049 1139.24 39.4617V69.4584L1.98224 69.4611L2.01235 39.4587Z" fill="#CFE6FF"/>
</g>
</svg>
